<svg width="100" height="100" viewBox="0 0 100 100" fill="none" xmlns="http://www.w3.org/2000/svg">
<path d="M50.4061 48.6456C50.4061 55.1677 44.9426 60.455 38.2031 60.455C31.4635 60.455 26 55.1677 26 48.6456C26 42.1234 31.4635 36.8362 38.2031 36.8362C44.9426 36.8362 50.4061 42.1234 50.4061 48.6456Z" fill="black"/>
<path fill-rule="evenodd" clip-rule="evenodd" d="M60.3087 56.9137C61.4666 54.2086 62.0626 51.3092 62.0626 48.3811H74.2656C74.2656 52.86 73.354 57.295 71.5829 61.433C69.8118 65.571 67.2158 69.3308 63.9431 72.4979C60.6705 75.6649 56.7853 78.1772 52.5094 79.8912C48.2335 81.6052 43.6507 82.4874 39.0225 82.4874L39.0225 70.678C42.0481 70.678 45.0442 70.1012 47.8395 68.9807C50.6349 67.8602 53.1748 66.2178 55.3143 64.1474C57.4537 62.0769 59.1509 59.6189 60.3087 56.9137Z" fill="#FFD84E"/>
<path d="M73.8105 23.5285C73.8105 26.5462 71.2826 28.9926 68.1643 28.9926C65.046 28.9926 62.5181 26.5462 62.5181 23.5285C62.5181 20.5108 65.046 18.0645 68.1643 18.0645C71.2826 18.0645 73.8105 20.5108 73.8105 23.5285Z" fill="black"/>
</svg>

