<svg width="100" height="100" viewBox="0 0 100 100" fill="none" xmlns="http://www.w3.org/2000/svg">
<path d="M50.4061 48.6456C50.4061 55.1677 44.9426 60.455 38.2031 60.455C31.4635 60.455 26 55.1677 26 48.6456C26 42.1234 31.4635 36.8362 38.2031 36.8362C44.9426 36.8362 50.4061 42.1234 50.4061 48.6456Z" fill="white"/>
<path fill-rule="evenodd" clip-rule="evenodd" d="M60.3086 56.9137C61.4665 54.2086 62.0624 51.3092 62.0624 48.3811H74.2655C74.2655 52.86 73.3539 57.295 71.5827 61.433C69.8116 65.571 67.2156 69.3308 63.943 72.4979C60.6703 75.665 56.7852 78.1772 52.5093 79.8912C48.2334 81.6052 43.6505 82.4874 39.0223 82.4874L39.0223 70.678C42.048 70.678 45.044 70.1012 47.8394 68.9807C50.6347 67.8602 53.1746 66.2178 55.3141 64.1474C57.4536 62.0769 59.1507 59.6189 60.3086 56.9137Z" fill="white"/>
<path d="M73.8103 23.5285C73.8103 26.5462 71.2824 28.9926 68.1641 28.9926C65.0458 28.9926 62.5179 26.5462 62.5179 23.5285C62.5179 20.5108 65.0458 18.0645 68.1641 18.0645C71.2824 18.0645 73.8103 20.5108 73.8103 23.5285Z" fill="white"/>
</svg>
